<svg xmlns="http://www.w3.org/2000/svg" viewBox="0 0 128 128">
  <defs>
    <linearGradient id="g" x1="0" y1="0" x2="1" y2="1">
      <stop offset="0%" stop-color="#7c3aed"/>
      <stop offset="100%" stop-color="#6d28d9"/>
    </linearGradient>
  </defs>
  <rect width="128" height="128" rx="28" ry="28" fill="url(#g)"/>
  <g fill="#fff" transform="translate(24,34)">
    <path d="M24 60c-6.8 0-12.3-1.8-16.6-5.5C3.1 48.7 0 42.8 0 35.2h12.2c0 4.7 1.5 8.3 4.5 10.7 2.9 2.4 6.3 3.6 10.3 3.6 3.8 0 6.9-0.9 9.1-2.7 2.2-1.8 3.3-4 3.3-6.7 0-2.1-0.6-3.9-1.9-5.3-1.2-1.4-3-2.5-5.3-3.3l-9.2-3.3c-5-1.8-8.9-4.2-11.6-7.1C8.8 18.1 7.4 14.4 7.4 9.7 7.4 6.2 8.4 3.1 10.4 0.5c2-2.6 4.6-4.7 7.8-6.1C21.4-7 25.1-7.7 29.2-7.7c6 0 10.9 1.5 14.8 4.6 3.9 3.1 6.1 7.3 6.8 12.6H38.6c-0.5-2.6-1.8-4.6-3.9-6.1-2.1-1.4-4.7-2.1-7.8-2.1-3.1 0-5.7 0.8-7.7 2.3-2 1.5-3 3.5-3 5.9 0 2.1 0.7 3.8 2 5.2 1.3 1.4 3.4 2.6 6.2 3.6l9.4 3.4c4.9 1.8 8.6 4.2 11 7.2 2.4 3.1 3.7 6.8 3.7 11.2 0 3.6-1 6.8-3.1 9.6-2.1 2.8-4.9 5-8.4 6.5C32.7 59.2 28.6 60 24 60z"/>
    <path d="M72.9 60c-5.1 0-9.4-1.4-12.7-4.3-3.4-2.9-5.1-6.6-5.1-11.2h12.2c0.1 2 0.8 3.6 2.1 4.7 1.3 1.1 3 1.7 5.2 1.7 2 0 3.6-0.5 4.8-1.6 1.1-1 1.7-2.3 1.7-3.8 0-2.3-1.5-4-4.6-5.1l-8.2-2.6c-8.7-2.8-13.1-7.8-13.1-15 0-4.6 1.8-8.4 5.3-11.2 3.5-2.8 8-4.2 13.5-4.2 5.3 0 9.6 1.4 12.8 4.1 3.2 2.7 4.9 6.1 5.1 10.2H78.1c-0.2-1.8-0.9-3.2-2.2-4.2-1.3-1-2.9-1.5-5-1.5-1.9 0-3.4 0.5-4.5 1.4-1.1 1-1.7 2.2-1.7 3.7 0 2.2 1.6 3.9 4.9 5.1l8.4 2.8c4.4 1.4 7.7 3.4 9.9 5.8 2.2 2.5 3.3 5.5 3.3 9.2 0 4.8-1.9 8.7-5.6 11.6-3.8 3-8.7 4.5-14.7 4.5z"/>
  </g>
</svg>
